<svg width="107" height="153" viewBox="0 0 107 153" fill="none" xmlns="http://www.w3.org/2000/svg">
<path d="M18.815 19.3584L0.611352 29.7266C0.485757 29.7981 0.410536 29.9273 0.409545 30.069L9.39412e-06 89.2185C-0.00098117 89.3615 0.0764271 89.4944 0.203219 89.5671L18.8045 100.226C18.9702 100.321 19.1811 100.292 19.3134 100.156L26.4671 92.8281C26.6506 92.6403 26.6058 92.3352 26.3757 92.2049L11.4504 83.7455C11.3234 83.6734 11.2454 83.5413 11.2454 83.3986V36.0897C11.2454 35.9482 11.3218 35.8174 11.4466 35.7449L17.3667 32.3089C17.5291 32.2147 17.7365 32.2398 17.87 32.3697L87.685 100.269C87.8181 100.398 88.0243 100.424 88.1863 100.331L106.797 89.6664C106.923 89.5944 107 89.4627 107 89.3206V30.2723C107 30.1294 106.922 29.9972 106.794 29.9253L88.0862 19.3605C87.9226 19.2681 87.7154 19.2956 87.5833 19.4275L80.4283 26.5715C80.244 26.7558 80.2824 27.0585 80.5074 27.1933L95.7612 36.345C95.8842 36.4189 95.9585 36.5497 95.9573 36.69L95.5485 83.218C95.5472 83.3499 95.4795 83.4727 95.3673 83.5468L89.7406 87.2568C89.577 87.3648 89.3576 87.3445 89.2175 87.2088L19.3128 19.4219C19.1801 19.293 18.9768 19.2663 18.815 19.3584Z" fill="#FFE400"/>
<path d="M53.4441 0.0542742L25.3296 15.9308C25.0954 16.0631 25.0535 16.3754 25.245 16.5616L32.4856 23.6035C32.6169 23.7312 32.8195 23.7579 32.9809 23.669L53.4505 12.391C53.5768 12.3216 53.7312 12.3216 53.8575 12.391L74.313 23.6613C74.481 23.7539 74.6923 23.7208 74.8221 23.5819L81.3807 16.5562C81.5561 16.3684 81.5105 16.0713 81.2862 15.9415L53.8626 0.056542C53.7338 -0.0180195 53.5737 -0.0189024 53.4441 0.0542742Z" fill="#FFE400"/>
<path d="M53.1416 118.835L81.2561 102.958C81.4903 102.826 81.5322 102.513 81.3407 102.327L74.1 95.2853C73.9688 95.1577 73.7662 95.131 73.6048 95.2199L53.1352 106.498C53.0089 106.567 52.8545 106.567 52.7282 106.498L32.2726 95.2275C32.1047 95.135 31.8933 95.1681 31.7635 95.307L25.205 102.333C25.0296 102.521 25.0752 102.818 25.2995 102.947L52.7231 118.832C52.8518 118.907 53.012 118.908 53.1416 118.835Z" fill="#FFE400"/>
<path d="M41.7878 63.8599L21.9766 82.9268C22.6644 83.6961 24.453 84.9338 27.2389 86.6398C28.7867 87.844 31.0567 87.9444 32.1918 87.2419L49.3203 71.0853L41.7878 63.8599Z" fill="#FFE400"/>
<path d="M65.0042 55.5403L84.8155 36.4735C84.1277 35.7042 82.3391 34.4664 79.5531 32.7605C78.0054 31.5562 75.3226 31.3459 74.6003 32.1583L57.4718 48.315L65.0042 55.5403Z" fill="#FFE400"/>
<path d="M0 152.188V149.615L2.34355 149.174V133.807L0 133.366V130.778H6.8187L16.4041 145.63L16.4948 145.615V133.807L13.6827 133.366V130.778H22.7994V133.366L20.4409 133.807V152.188H16.1773L6.38031 137.483L6.28948 137.498V149.174L9.11684 149.615V152.188H0ZM24.2508 152.188V149.615L26.5942 149.174V133.807L24.2508 133.366V130.778H41.3352V136.557H37.9486L37.7521 134.086H31.009V139.468H38.4627V142.777H31.009V148.895H38.1149L38.3115 146.336H41.6678V152.188H24.2508ZM49.3936 152.188V149.615L51.7522 149.174V134.086H47.7457L47.5038 136.645H44.1625V130.778H63.8015V136.645H60.4458L60.2033 134.086H56.1669V149.174L58.5405 149.615V152.188H49.3936ZM65.3445 152.188V149.615L67.6875 149.174V133.807L65.3445 133.366V130.778H82.4287V136.557H79.0421L78.846 134.086H72.1023V139.468H79.5555V142.777H72.1023V148.895H79.2085L79.4046 146.336H82.7616V152.188H65.3445ZM84.8168 152.188V149.615L86.7378 149.262L92.9666 141.586L87.1003 133.733L85.3161 133.366V130.778H93.9188V133.366L91.8171 133.557L95.5973 138.704L99.3774 133.557L97.3209 133.366V130.778H105.802V133.366L103.852 133.733L98.2124 141.204L104.533 149.247L106.634 149.615V152.188H97.8202V149.615L99.709 149.438L95.6269 143.998L91.4546 149.438L93.2995 149.615V152.188H84.8168Z" fill="white"/>
</svg>
